<svg width="60" height="60" viewBox="0 0 60 60" fill="none" xmlns="http://www.w3.org/2000/svg">
<rect width="60" height="60" rx="10" fill="white"/>
<path d="M18.627 33.3164H12.2637V28.5527H18.627C19.4941 28.5527 20.1973 28.4062 20.7363 28.1133C21.2754 27.8203 21.668 27.416 21.9141 26.9004C22.1719 26.373 22.3008 25.7812 22.3008 25.125C22.3008 24.4219 22.1719 23.7715 21.9141 23.1738C21.668 22.5762 21.2754 22.0957 20.7363 21.7324C20.1973 21.3574 19.4941 21.1699 18.627 21.1699H14.584V42H8.41406V16.4062H18.627C20.6777 16.4062 22.4414 16.7812 23.918 17.5312C25.4062 18.2812 26.5488 19.3125 27.3457 20.625C28.1426 21.9258 28.541 23.4141 28.541 25.0898C28.541 26.7422 28.1426 28.1836 27.3457 29.4141C26.5488 30.6445 25.4062 31.6055 23.918 32.2969C22.4414 32.9766 20.6777 33.3164 18.627 33.3164ZM46.418 33.334H52.5703C52.4883 35.1152 52.0078 36.6855 51.1289 38.0449C50.25 39.4043 49.0312 40.4648 47.4727 41.2266C45.9258 41.9766 44.0977 42.3516 41.9883 42.3516C40.2773 42.3516 38.748 42.0645 37.4004 41.4902C36.0645 40.916 34.9277 40.0898 33.9902 39.0117C33.0645 37.9336 32.3555 36.627 31.8633 35.0918C31.3828 33.5566 31.1426 31.8281 31.1426 29.9062V28.5176C31.1426 26.5957 31.3945 24.8672 31.8984 23.332C32.4141 21.7852 33.1406 20.4727 34.0781 19.3945C35.0273 18.3047 36.1641 17.4727 37.4883 16.8984C38.8125 16.3242 40.2832 16.0371 41.9004 16.0371C44.127 16.0371 46.0078 16.4355 47.543 17.2324C49.0781 18.0293 50.2676 19.125 51.1113 20.5195C51.9551 21.9023 52.4531 23.4785 52.6055 25.248H46.4531C46.4297 24.2871 46.2656 23.4844 45.9609 22.8398C45.6562 22.1836 45.1758 21.6914 44.5195 21.3633C43.8633 21.0352 42.9902 20.8711 41.9004 20.8711C41.1387 20.8711 40.4766 21.0117 39.9141 21.293C39.3516 21.5742 38.8828 22.0195 38.5078 22.6289C38.1328 23.2383 37.8516 24.0293 37.6641 25.002C37.4883 25.9629 37.4004 27.123 37.4004 28.4824V29.9062C37.4004 31.2656 37.4824 32.4258 37.6465 33.3867C37.8105 34.3477 38.0742 35.1328 38.4375 35.7422C38.8008 36.3516 39.2695 36.8027 39.8438 37.0957C40.4297 37.377 41.1445 37.5176 41.9883 37.5176C42.9258 37.5176 43.7168 37.3711 44.3613 37.0781C45.0059 36.7734 45.5039 36.3164 45.8555 35.707C46.207 35.0859 46.3945 34.2949 46.418 33.334Z" fill="#EE4E2C"/>
</svg>
